<svg xmlns="http://www.w3.org/2000/svg" viewBox="0 0 100 1000"><path fill="#305" d="M0 0h100v1000H0z"/><g fill-opacity=".18"><circle fill="#305" cx="50" r="50"/><g fill="#3a015d"><circle cy="50" r="50"/><circle cx="100" cy="50" r="50"/></g><circle fill="#410165" cx="50" cy="100" r="50"/><g fill="#48026e"><circle cy="150" r="50"/><circle cx="100" cy="150" r="50"/></g><circle fill="#500376" cx="50" cy="200" r="50"/><g fill="#57047e"><circle cy="250" r="50"/><circle cx="100" cy="250" r="50"/></g><circle fill="#5f0587" cx="50" cy="300" r="50"/><g fill="#67068f"><circle cy="350" r="50"/><circle cx="100" cy="350" r="50"/></g><circle fill="#6f0798" cx="50" cy="400" r="50"/><g fill="#7707a0"><circle cy="450" r="50"/><circle cx="100" cy="450" r="50"/></g><circle fill="#8008a9" cx="50" cy="500" r="50"/><g fill="#8909b1"><circle cy="550" r="50"/><circle cx="100" cy="550" r="50"/></g><circle fill="#9109ba" cx="50" cy="600" r="50"/><g fill="#9a09c3"><circle cy="650" r="50"/><circle cx="100" cy="650" r="50"/></g><circle fill="#a309cb" cx="50" cy="700" r="50"/><g fill="#ad09d4"><circle cy="750" r="50"/><circle cx="100" cy="750" r="50"/></g><circle fill="#b608dc" cx="50" cy="800" r="50"/><g fill="#c007e5"><circle cy="850" r="50"/><circle cx="100" cy="850" r="50"/></g><circle fill="#c905ee" cx="50" cy="900" r="50"/><g fill="#d303f6"><circle cy="950" r="50"/><circle cx="100" cy="950" r="50"/></g><circle fill="#D0F" cx="50" cy="1000" r="50"/></g></svg>