<?xml version="1.0" encoding="UTF-8"?>
<!DOCTYPE svg PUBLIC "-//W3C//DTD SVG 1.0//EN" "http://www.w3.org/TR/2001/REC-SVG-20010904/DTD/svg10.dtd">
<!-- Creator: CorelDRAW 2020 (64 Bit) -->
<svg xmlns="http://www.w3.org/2000/svg" xml:space="preserve" width="17.9774mm" height="15.4534mm" version="1.0" style="shape-rendering:geometricPrecision; text-rendering:geometricPrecision; image-rendering:optimizeQuality; fill-rule:evenodd; clip-rule:evenodd"
viewBox="0 0 412.36 354.47"
 xmlns:xlink="http://www.w3.org/1999/xlink"
 xmlns:xodm="http://www.corel.com/coreldraw/odm/2003">
 <defs>
  <style type="text/css">
   <![CDATA[
    .fil0 {fill:#FEFEFE}
   ]]>
  </style>
 </defs>
 <g id="Camada_x0020_1">
  <metadata id="CorelCorpID_0Corel-Layer"/>
  <path class="fil0" d="M-0 163.59l0 0.42c0.05,8.73 1.63,13.85 8.23,20.34 11.04,10.85 20.42,7.34 30.43,5.01 0,13.71 -0.88,134.25 0.18,141.57 0.81,5.61 4.1,12.19 7.64,15.72 3.16,3.15 10.43,7.82 16.34,7.82l123.23 0 0 -125.64 40.27 0 0 125.64 120.81 0c5.77,0 12.92,-4.3 16.25,-7.11 1.63,-1.37 4.13,-4.78 5.26,-6.82 6.01,-10.94 3.46,-40.23 3.46,-56.14 0,-31.95 0,-63.9 0,-95.84 6.22,1.45 3.73,3.22 14.5,3.22 7.64,0 13.54,-3.5 17.54,-7.42 4.94,-4.86 7.66,-10.85 8.23,-16.95l0 -4.9c-0.67,-7.1 -4.24,-13.96 -10.57,-18.94l-40.42 -31.26c-2.11,-1.72 -3.78,-2.87 -5.96,-4.5l-17.25 -13.35c-4.1,-3.07 -7.84,-6.2 -11.97,-8.97 0,-18.25 -0.07,-36.52 0,-54.77 0.04,-10.09 -1.42,-15.73 -6.24,-21.14 -13.1,-14.69 -34.32,-11.56 -43.69,3.43 -4.51,7.23 -4.03,18.76 -4.03,30.6l-30.62 -23.35c-5.06,-3.87 -9.61,-7.63 -14.95,-11.63 -8.47,-6.35 -10.38,-8.51 -22.09,-8.51 -10.74,0 -19.74,9.4 -29.34,16.57l-38.66 29.8c-4.75,3.55 -8.59,6.65 -13.24,10.12 -31.97,23.92 -64.86,50.73 -96.87,74.68 -2.4,1.8 -4.49,3.24 -6.89,5.19l-12.93 10.43c-3.01,3.5 -6.65,10.43 -6.65,16.71z"/>
 </g>
</svg>
