<?xml version="1.0" encoding="UTF-8"?>
<!DOCTYPE svg PUBLIC "-//W3C//DTD SVG 1.0//EN" "http://www.w3.org/TR/2001/REC-SVG-20010904/DTD/svg10.dtd">
<!-- Creator: CorelDRAW 2020 (64 Bit) -->
<svg xmlns="http://www.w3.org/2000/svg" xml:space="preserve" width="135.45mm" height="125.56mm" version="1.0" style="shape-rendering:geometricPrecision; text-rendering:geometricPrecision; image-rendering:optimizeQuality; fill-rule:evenodd; clip-rule:evenodd"
viewBox="0 0 80884.71 74979.13"
 xmlns:xlink="http://www.w3.org/1999/xlink"
 xmlns:xodm="http://www.corel.com/coreldraw/odm/2003">
 <defs>
  <style type="text/css">
   <![CDATA[
    .fil1 {fill:black}
    .fil6 {fill:#3D3D5B}
    .fil3 {fill:#504F6C}
    .fil4 {fill:#676788}
    .fil5 {fill:#BF7A47}
    .fil0 {fill:#DA985D}
    .fil2 {fill:#E9B782}
   ]]>
  </style>
 </defs>
 <g id="Camada_x0020_1">
  <metadata id="CorelCorpID_0Corel-Layer"/>
  <g id="_2713439168288">
   <path class="fil0" d="M79778.9 25744.94l0 -3124.69c-2538.69,-385.11 -589.22,-4978.56 -1459.69,-9119.73l-26714.43 -1.02c-131.85,3649.29 59.72,7396.39 -15.23,11057.44 -37.56,1835.3 -757.26,2877.22 -1959.15,3493.13 -1336.62,684.88 -3273.62,532.31 -4069.93,-497.01 -2576.79,1063.84 -2250.45,1536.96 -5118.12,33.38 -731.16,453.24 -1294.76,914.49 -2527.35,897.53 -930.73,-12.84 -1876.57,-346.41 -2317.33,-931.33 -663.8,260.48 -1086.11,745.61 -2003.52,887.38 -2162.96,334.11 -4219.93,-1067.72 -4284.13,-3887.25 -82.89,-3640.39 52.25,-7334.7 -3.94,-11053.74l-26718.37 52.01c-383.37,1699.03 -198.26,5297.56 -197.3,7206.91l17.74 37124.85c-0.06,2091.6 -357.52,13392.57 277.44,14364.56 811.48,712.95 60554.43,309.86 69668.31,308.19 4798.52,-0.96 6132.09,639.79 6152.15,-1551.41 116.62,-12700.82 -1.13,-25932.69 -1.19,-38713.83 0,-1316.37 5.37,-2633.46 -0.06,-3949.78 -6.69,-1630.9 -244.36,-2300.61 1274.09,-2595.6z"/>
   <path class="fil1" d="M79778.9 25744.94c-1518.45,295 -1280.78,964.71 -1274.09,2595.6 5.43,1316.31 0.06,2633.4 0.06,3949.78 0.06,12781.14 117.82,26013.01 1.19,38713.83 -20.06,2191.21 -1353.64,1550.46 -6152.15,1551.41 -9113.87,1.67 -68856.83,404.75 -69668.31,-308.19 -634.96,-971.99 -277.5,-12272.96 -277.44,-14364.56l-17.74 -37124.85c-0.96,-1909.35 -186.07,-5507.88 197.3,-7206.91l26718.37 -52.01c56.19,3719.04 -78.94,7413.35 3.94,11053.74 64.19,2819.54 2121.16,4221.36 4284.13,3887.25 917.41,-141.77 1339.72,-626.9 2003.52,-887.38 440.76,584.92 1386.6,918.49 2317.33,931.33 1232.59,16.96 1796.19,-444.29 2527.35,-897.53 2867.67,1503.58 2541.32,1030.45 5118.12,-33.38 796.31,1029.32 2733.31,1181.89 4069.93,497.01 1201.9,-615.91 1921.59,-1657.83 1959.15,-3493.13 74.94,-3661.05 -116.62,-7408.15 15.23,-11057.44l26714.43 1.02c870.48,4141.17 -1079,8734.62 1459.69,9119.73 696.4,-91.66 992.06,-543.77 1105.82,-1178.97l0 -2895.02 0 -3947.27c-106.59,-2212.23 -657.47,-3608.68 -3041.8,-5965.12 -537.2,-530.93 -759.05,-919.32 -1260,-1425.65 -898.24,-907.8 -1701.78,-1703.09 -2611.13,-2602.11l-2525.56 -2687.75c-2281.8,-2310.28 -4272.9,-1855.55 -8571,-1855.55l-36492.94 0c-1825.45,0 -3883.97,-459.21 -4069.69,1105.88 148.63,929.59 524.84,1235.1 1531.29,1269.62l8446.37 -6.63c-319,1419.8 -928.58,3123.31 -1372.21,4531.41 -149.11,473.19 -1023.71,4039.65 -1534.16,4169.65l-21828.37 2.15 -3473.07 -10.33c305.86,-537.2 4018.69,-4218.38 4894.72,-5243.22 2545.62,-2977.9 3095.3,-3528.18 6667.62,-3452.64 669.89,5.61 1891.38,70.94 2502.51,-26.1 1010.03,-160.34 673.35,-467.57 1126,-1150.6 -535.05,-1327.66 -578.29,-1202.32 -2368.56,-1190.25 -1128.75,7.58 -2368.33,-53.27 -3479.58,-1.85 -2191.99,101.46 -3437.6,1311.84 -4620.21,2488.77l-6912.45 7305.56c-945.42,1243.94 -1816.37,2622.36 -1892.51,4750.15l0 49913.51 0 6827.96c141.05,1120.39 429.71,2065.15 981.85,2616.68 766.63,765.91 1500.36,991.22 2645.76,987.76l70779.98 -5.85c2695.21,0 4441.36,358.89 5717.3,-1233.79 465.36,-580.91 674.19,-1362.06 759.82,-2252.18l0 -4097.04 0 -40692.09c-78.77,-458.98 -340.74,-721.6 -1105.82,-924.4z"/>
   <path class="fil2" d="M51500.81 11132.8l25338.4 -0.06c-303.89,-621.1 -618.36,-657.41 -1110.23,-1172.82l-4408.33 -4759.1c-1026.51,-1195.51 -2420.64,-2637.52 -4174.49,-2749.37 -3247.1,-207.03 -14423.74,-19.77 -18533.55,-19.77l2012.9 6565.62c208.53,662.49 293.8,1785.26 875.31,2135.49z"/>
   <path class="fil1" d="M58080.05 61671.06l-9716.35 -44.61c-274.75,-1107.73 -226.2,-17082.16 -47.06,-18889.04l18350.05 -24.78c884.33,40.96 184.04,-44.13 477.73,318.52l5.37 18589.86c-1484.89,20.36 -5245.37,-670.61 -5069.69,1304.55 92.74,1042.58 1031.77,1082.59 2053.03,1077.75 6110.23,-28.84 5396.75,436.7 5396.75,-10543.95 0,-2106.35 0,-4212.71 0,-6319.12 0,-7963.39 1011.17,-6769.67 -12499.88,-6769.67 -2106.35,0 -4212.71,0.06 -6319.12,0 -6106.95,-0.24 -4810.82,371.67 -4810.82,14352.67 0,10485.9 -1363.43,9270.33 9866.17,9276.12 862.18,0.48 2190.91,231.82 2779.71,-336.86 829.69,-801.33 167.74,-1630.84 -465.9,-1991.46z"/>
   <path class="fil2" d="M15644.8 2428.7c-460.35,637.88 -1324.73,1447.45 -2006.87,2107.37 -704.35,681.36 -1330.94,1488.83 -2038.81,2230.14 -966.2,1011.82 -3498.27,3288.9 -4043.59,4368.68l21828.37 -2.15c510.45,-130 1385.05,-3696.46 1534.16,-4169.65 443.63,-1408.1 1053.21,-3111.61 1372.21,-4531.41l-8446.37 6.63c-1006.45,-34.52 -1382.66,-340.02 -1531.29,-1269.62l-3039.29 83.3c-452.65,683.03 -115.97,990.27 -1126,1150.6 -611.13,97.04 -1832.62,31.71 -2502.51,26.1z"/>
   <path class="fil3" d="M35445.34 23641.99c1991.52,304.97 533.56,2263.88 2336.74,2461.54 1989.73,218.14 938.25,-2138.78 2414.96,-2424.46 1973.9,-381.88 858.29,1976.89 2377.82,2382.24 1957.24,522.03 1268.06,-1849.52 2439.21,-2319.48 1803.18,-723.64 1256.96,1805.45 2348.98,2265.2 1846.11,777.26 1865.94,-1339.66 1862.77,-2721.01 -7.52,-3232.77 49.5,-6497.01 -6.75,-9725l-13684.34 -54.16c-370.83,1767.76 -89.39,7914.96 -89.39,10135.13z"/>
   <path class="fil4" d="M35848.49 11134.18l12927.2 -4.72 -2662.37 -8686.67 -7621.28 -17.8 -2643.56 8709.18z"/>
   <path class="fil1" d="M12532.9 57069.54c-1261.02,535.89 -1048.37,2068.13 259.88,2245.31l12325.74 19.53c1953,0 15691.08,148.21 16347.24,-116.03 1032.72,-415.92 883.61,-2058.04 -413.71,-2237.91l-12300.07 -11.58c-1911.32,0 -15638.83,-145.95 -16219.09,100.68z"/>
   <path class="fil1" d="M12509.85 46473.05c-1229.73,512.18 -1020.54,2071.6 288.79,2240.95l12319.89 14.57c1929.77,0 15701.77,145.71 16335.42,-107.79 1028.96,-411.68 924.82,-2042.82 -398.18,-2231.04l-12303.77 -16c-1933.42,0 -15636.26,-152.99 -16242.14,99.31z"/>
   <path class="fil1" d="M13270.15 54025.47l27330.22 0c2127.79,0 2133.17,-2354.83 0,-2354.83l-27409.22 0c-2104.02,0 -1984,2354.83 79,2354.83z"/>
   <path class="fil5" d="M58080.05 61671.06c-600.2,-520.42 -2387.2,-311.95 -3577.63,-311.95 -1137.7,0 -2278.1,3.7 -3414.31,-0.78l0 -18399.31c1905.35,-91.07 14880.26,-144.21 16056.3,72.14 -293.68,-362.65 406.6,-277.56 -477.73,-318.52l-18350.05 24.78c-179.15,1806.88 -227.7,17781.31 47.06,18889.04l9716.35 44.61z"/>
   <path class="fil1" d="M56571.57 48036.7c2.15,1438.91 1.37,2877.94 0.72,4316.85 -0.6,1315.84 -319.48,3195.99 1243.1,3157.35 1967.81,-48.61 836.74,-4125.1 1178.55,-7513.25 601.82,644.21 1706.91,1816.37 2364.74,2397.23 1445.18,1276.13 2905.95,-262.45 1874.24,-1554.88 -589.22,-738.21 -1728.95,-1732.23 -2448.88,-2452.17 -610.89,-610.89 -1727.16,-2079.6 -2967.57,-2107.85 -1328.85,-30.28 -2305.39,1391.62 -2912.16,1998.39 -859.73,859.79 -1719.81,1646.6 -2536.49,2521.26 -1140.75,1221.72 368.09,2775.11 1570.94,1733.67 889.41,-770.03 1603.01,-1955.57 2632.81,-2496.6z"/>
   <path class="fil6" d="M35445.34 23641.99c0,-2220.17 -281.44,-8367.37 89.39,-10135.13l-3840.14 -6.03c-109.16,3042.76 -14.03,6250.09 -15.53,9310.88 -0.72,1437.24 -294.04,3466.38 1473.66,3292.37 1780.07,-175.27 337.51,-1997.55 2292.61,-2462.08z"/>
   <path class="fil3" d="M35848.49 11134.18l2643.56 -8709.18 -3725.13 9.97 -2663.44 8691.03 3745.01 8.18z"/>
   <path class="fil0" d="M7555.53 11134.89c545.32,-1079.78 3077.39,-3356.86 4043.59,-4368.68 707.87,-741.31 1334.47,-1548.79 2038.81,-2230.14 682.13,-659.92 1546.52,-1469.48 2006.87,-2107.37 -3572.31,-75.54 -4122,474.74 -6667.62,3452.64 -876.03,1024.84 -4588.86,4706.02 -4894.72,5243.22l3473.07 10.33z"/>
   <path class="fil1" d="M52780.34 57361.85c-1100.56,398.72 -1075,1779.47 -227.28,2153.59 660.28,291.41 9899.73,169.77 10260.12,48.91 1056.73,-354.47 905.05,-1878.36 96.26,-2186.85 -554.16,-211.39 -9674.49,-180.34 -10129.1,-15.65z"/>
   <path class="fil1" d="M5658.72 67307.63c-1337.21,749.55 -322.88,2851.66 1152.45,2132.27 1249.37,-609.16 422.97,-3015.35 -1152.45,-2132.27z"/>
   <path class="fil1" d="M5696.04 22461.41c-1385.88,668.76 -409.83,2870.95 1125.4,2124.39 1098.35,-534.1 627.02,-2970.02 -1125.4,-2124.39z"/>
   <path class="fil1" d="M5669.35 56097.43c-1353.93,756.54 -334.59,2858.29 1133.11,2118.18 1274.93,-642.84 427.09,-2989.97 -1133.11,-2118.18z"/>
   <path class="fil1" d="M5678.49 44885.98c-1373.28,768.24 -339.72,2858.89 1129.52,2118.24 1266.69,-638.54 417.83,-2983.94 -1129.52,-2118.24z"/>
   <path class="fil1" d="M5687.74 33674c-1335.54,641.82 -455.27,2876.51 1129.1,2123.31 1163.56,-553.15 556.55,-2933.36 -1129.1,-2123.31z"/>
   <path class="fil1" d="M34240.82 67284.1c-1463.57,438.13 -839.54,2807.53 889.64,2197.48 1338.77,-472.29 744.24,-2686.49 -889.64,-2197.48z"/>
   <path class="fil1" d="M11813.8 16421.05c-1444.11,459.09 -842.41,2752.72 895.14,2201.78 1291.77,-409.59 798.7,-2740.29 -895.14,-2201.78z"/>
   <path class="fil1" d="M11812.13 67289.23c-1446.49,460.65 -827.36,2776 890.42,2197.18 1319.06,-444.46 783.53,-2730.26 -890.42,-2197.18z"/>
   <path class="fil1" d="M23026.5 16418.96c-1455.45,453.78 -831.9,2790.16 890.6,2196.76 1311.24,-451.69 775.89,-2716.35 -890.6,-2196.76z"/>
   <path class="fil1" d="M23025.73 67287.14c-1453.96,451.33 -830.65,2791.17 890.66,2196.76 1311.18,-452.82 778.63,-2714.92 -890.66,-2196.76z"/>
   <path class="fil1" d="M62319.63 16389.64c-1425.77,361.94 -1002.99,2611.25 662.07,2270.15 1482.14,-303.65 1069.99,-2709.78 -662.07,-2270.15z"/>
   <path class="fil1" d="M45453.1 67283.68c-1503.28,445.6 -765.91,2794.82 891.02,2195.81 1297.74,-469.13 768.06,-2687.57 -891.02,-2195.81z"/>
   <path class="fil1" d="M73908.96 39172.14c-1507.22,421.06 -887.73,2824.32 765.14,2275.05 1234.2,-410.13 895.97,-2739.1 -765.14,-2275.05z"/>
   <path class="fil1" d="M73919.47 27961.53c-1542.7,434.49 -854.95,2768.3 672.4,2304.61 1383.02,-419.86 950.67,-2761.79 -672.4,-2304.61z"/>
   <path class="fil1" d="M73929.74 16749.84c-1553.92,440.76 -874.36,2770.15 667.56,2305.5 1376.87,-414.9 934.07,-2759.76 -667.56,-2305.5z"/>
   <path class="fil1" d="M73826.67 50436.14c-1556.55,750.98 -551.95,2880.57 966.5,2171.38 1194.49,-557.8 522.33,-2889.7 -966.5,-2171.38z"/>
   <path class="fil1" d="M5840.02 61618.75c-1513.55,586.71 -682.49,2847.9 891.14,2232.59 1293.14,-505.55 598.77,-2810.16 -891.14,-2232.59z"/>
   <path class="fil1" d="M56616.84 16478.02c-1689.84,836.86 -336.62,2769.73 1052.85,2081.93 1240.36,-614 423.5,-2813.03 -1052.85,-2081.93z"/>
   <path class="fil1" d="M62244.69 67310.91c-1473.43,589.69 -713.42,2667.92 862.71,2185.06 1440.22,-441.24 696.4,-2809.09 -862.71,-2185.06z"/>
   <path class="fil1" d="M73836.41 61663.18c-258.09,112.27 -457.06,52.79 -663.98,545.86 -149.71,356.74 -136.45,638.66 -19.53,996.54 172.94,529.68 850.77,979.58 1634.9,613.1 1165.29,-544.61 612.56,-2836.14 -951.39,-2155.5z"/>
   <path class="fil1" d="M6856.02 52664.02c322.41,-447.99 737.61,-869.28 465.84,-1619.91 -196.64,-543.05 -803.89,-906.78 -1521.8,-646.18 -1049.86,381.11 -1287.23,2603.9 1055.95,2266.09z"/>
   <path class="fil1" d="M51032.4 67313.9c-1474.14,602.89 -703.27,2653.41 860.5,2183.98 1446.85,-434.37 700.11,-2822.28 -860.5,-2183.98z"/>
   <path class="fil1" d="M56618.93 67352.47c-669.59,300.25 -1023.11,821.21 -603.13,1641.76 297.68,581.69 1085.93,715.45 1653.17,434.01 1220.77,-605.64 451.39,-2749.07 -1050.04,-2075.78z"/>
   <path class="fil1" d="M5619.73 30242.97c2283.77,326.41 2116.92,-1875.37 1054.34,-2265.55 -699.69,-256.96 -1324.97,129.94 -1524.42,629.7 -318.46,797.74 129.46,1167.74 470.08,1635.85z"/>
   <path class="fil1" d="M67832.35 16481.06c-1641.05,722.5 -410.84,2814.34 1050.4,2075.42 1213.84,-613.82 443.39,-2733.13 -1050.4,-2075.42z"/>
   <path class="fil1" d="M67831.63 67349.96c-1640.93,722.92 -408.16,2813.15 1050.46,2074.88 1214.26,-614.65 445.72,-2734.08 -1050.46,-2074.88z"/>
   <path class="fil1" d="M5627.97 41454.18c2249.31,329.81 2119.43,-1832.74 1037.62,-2253.67 -699.51,-272.18 -1321.03,115.67 -1518.63,620.33 -298.58,762.63 145.89,1187.45 481.01,1633.34z"/>
   <path class="fil1" d="M30171.73 67767.8c-448.7,-319.96 -872.86,-734.56 -1622.95,-459.93 -530.45,194.2 -896.27,799.24 -631.97,1511.82 393.59,1061.27 2577.09,1256.42 2254.93,-1051.89z"/>
   <path class="fil1" d="M5879.79 16773.79c-1662.61,666.55 -583.36,2778.93 764.12,2263.23 1289.14,-493.43 738.56,-2865.64 -764.12,-2263.23z"/>
   <path class="fil1" d="M73678.46 22503.81c-565.15,354.17 -843.25,878.6 -462.98,1644.39 274.1,551.95 1067.96,725.43 1643.68,387.79 1218.62,-714.68 206.8,-2901.65 -1180.7,-2032.19z"/>
   <path class="fil1" d="M73670.4 33714.96c-566.64,352.38 -830.88,897.23 -451.51,1646.9 276.48,546.52 1061.87,720.83 1634.78,385.35 1226.38,-718.08 216.05,-2902.54 -1183.27,-2032.25z"/>
   <path class="fil1" d="M18947.62 16916.21c-442.02,-322.29 -862.41,-769.2 -1606.71,-469.96 -493.01,198.2 -888.69,816.49 -647.44,1512.6 375.31,1083 2628.15,1208.83 2254.15,-1042.64z"/>
   <path class="fil1" d="M73661.86 44925.57c-1387.91,858.83 -168.88,2826.64 1186.49,2032.96 1233.19,-722.14 224.95,-2906.3 -1186.49,-2032.96z"/>
   <path class="fil1" d="M73670.4 67367.28c-1454.91,932.58 -69.39,2735.76 1187.57,2031.41 1233.73,-691.33 249.01,-2952.29 -1187.57,-2031.41z"/>
   <path class="fil1" d="M39819.7 67315.99c-1494.39,624.98 -650.96,2661.05 844.92,2173.71 1449,-472.11 658.37,-2802.4 -844.92,-2173.71z"/>
   <path class="fil1" d="M73678.28 56156.37c-1474.32,952.41 -65.09,2734.32 1185.72,2031.59 1241.19,-697.36 222.86,-2941.54 -1185.72,-2031.59z"/>
   <path class="fil1" d="M18950.91 68996.86l45.44 -1212.59c-3107.01,-2241.43 -3131.25,3457.24 -45.44,1212.59z"/>
  </g>
 </g>
</svg>
