<?xml version="1.0" encoding="UTF-8"?>
<!DOCTYPE svg PUBLIC "-//W3C//DTD SVG 1.0//EN" "http://www.w3.org/TR/2001/REC-SVG-20010904/DTD/svg10.dtd">
<!-- Creator: CorelDRAW 2020 (64 Bit) -->
<svg xmlns="http://www.w3.org/2000/svg" xml:space="preserve" width="180.282mm" height="172.929mm" version="1.0" style="shape-rendering:geometricPrecision; text-rendering:geometricPrecision; image-rendering:optimizeQuality; fill-rule:evenodd; clip-rule:evenodd"
viewBox="0 0 19019.47 18243.76"
 xmlns:xlink="http://www.w3.org/1999/xlink"
 xmlns:xodm="http://www.corel.com/coreldraw/odm/2003">
 <defs>
  <style type="text/css">
   <![CDATA[
    .fil0 {fill:#FFC007}
   ]]>
  </style>
 </defs>
 <g id="Camada_x0020_1">
  <metadata id="CorelCorpID_0Corel-Layer"/>
  <path class="fil0" d="M6426.5 5686.42c-421.17,0 -4692.03,435.31 -5421.24,485.19 -608.65,41.64 -966.19,477.57 -1005.27,948.55l0 173.47c21.48,256.58 138.66,510.59 362.3,705.1l2043.18 1783c113.25,112.63 187.14,150.61 297.18,260.03 113.25,112.63 187.14,150.61 297.18,260.03 113.25,112.63 187.14,150.61 297.18,260.02 113.46,112.84 188.68,150.68 297.55,259.66l296.92 260.3c190.73,178.48 392.17,369.66 603.35,511.07 -78.8,164.23 -1263.01,5448.72 -1263.01,5646.4 0,508.67 467.78,1002.99 1002.98,1002.99 434.74,0 963.37,-395.68 1390.54,-652.57l3884.4 -2319.22 4487.83 2681.62c451.15,272.45 965.32,488.76 1466.46,3.7 480.11,-464.71 307.57,-918.65 189.79,-1437.07l-319.32 -1389.47c-53.92,-230.31 -99.93,-477.28 -163.58,-727.95l-475.06 -2088.11c-39.15,-171.7 -118.01,-609.41 -171.22,-720.31l4112.49 -3577.03c231.86,-192 357.12,-451.53 382.35,-715.34l0 -200.05c-43.92,-458.76 -390.28,-881.54 -1005.7,-928.38 -608.07,-46.28 -1197.21,-93.03 -1811.59,-157.22 -572.72,-59.84 -1222.18,-114.07 -1794.9,-173.9l-1814.31 -154.5c-14.43,-173.48 -1789.8,-4240.91 -1941.96,-4595.99 -108.6,-253.4 -198.28,-525.26 -354.57,-722.7 -382.18,-482.83 -1162.69,-490.72 -1556.8,-20.55 -223.74,266.93 -1709.1,3861.09 -1994.74,4543.2 -71.68,171.18 -305.96,646.47 -318.39,796.03z"/>
 </g>
</svg>
